<svg width="7" height="13" viewBox="0 0 7 13" fill="none" xmlns="http://www.w3.org/2000/svg">
<path d="M5.09327 2.02054H6.70167C6.84964 2.02054 6.96973 1.90737 6.96973 1.76794V0.252354C6.96973 0.11292 6.84964 -0.000244141 6.70167 -0.000244141H5.09327C3.46771 -0.000244141 2.14453 1.24607 2.14453 2.77833V4.54652H0.268067C0.120094 4.54652 0 4.65968 0 4.79911V6.3147C0 6.45413 0.120094 6.5673 0.268067 6.5673H2.14453V11.8719C2.14453 12.0113 2.26463 12.1245 2.4126 12.1245H4.021C4.16897 12.1245 4.28907 12.0113 4.28907 11.8719V6.5673H6.16553C6.2808 6.5673 6.3832 6.49758 6.4202 6.39452L6.95633 4.87894C6.98367 4.80215 6.96973 4.71727 6.91934 4.65109C6.8684 4.58542 6.78798 4.54652 6.70167 4.54652H4.28907V2.77833C4.28907 2.36053 4.64988 2.02054 5.09327 2.02054Z" fill="#0A142F"/>
</svg>
