<svg width="12" height="12" viewBox="0 0 12 12" fill="none" xmlns="http://www.w3.org/2000/svg">
<path d="M1.48346 2.9671C2.30275 2.9671 2.96692 2.30289 2.96692 1.48355C2.96692 0.664208 2.30275 0 1.48346 0C0.664167 0 0 0.664208 0 1.48355C0 2.30289 0.664167 2.9671 1.48346 2.9671Z" fill="#0A142F"/>
<path d="M2.7199 3.95801H0.247264C0.110774 3.95801 0 4.06878 0 4.20527V11.623C0 11.7595 0.110774 11.8703 0.247264 11.8703H2.7199C2.85639 11.8703 2.96716 11.7595 2.96716 11.623V4.20527C2.96716 4.06878 2.85639 3.95801 2.7199 3.95801Z" fill="#0A142F"/>
<path d="M10.088 3.54665C9.03124 3.18466 7.7094 3.50263 6.91669 4.07281C6.8895 3.96649 6.79257 3.88737 6.67735 3.88737H4.20478C4.06829 3.88737 3.95752 3.99814 3.95752 4.13463V11.5524C3.95752 11.6889 4.06829 11.7996 4.20478 11.7996H6.67735C6.81384 11.7996 6.92461 11.6889 6.92461 11.5524V6.22148C7.32417 5.8773 7.83896 5.76752 8.26029 5.94653C8.66876 6.11912 8.90266 6.54045 8.90266 7.10172V11.5524C8.90266 11.6889 9.01344 11.7996 9.14992 11.7996H11.6225C11.759 11.7996 11.8698 11.6889 11.8698 11.5524V6.60374C11.8416 4.57178 10.8857 3.81962 10.088 3.54665Z" fill="#0A142F"/>
</svg>
