<svg width="13" height="11" viewBox="0 0 13 11" fill="none" xmlns="http://www.w3.org/2000/svg">
<path d="M12.2202 1.26468C12.139 1.1729 12.0081 1.14981 11.9007 1.20642C11.8339 1.2416 11.7083 1.28776 11.5593 1.33338C11.7474 1.07616 11.8986 0.78817 11.9654 0.529304C11.9942 0.417734 11.952 0.300117 11.8601 0.233615C11.7682 0.167662 11.6458 0.167662 11.5539 0.233615C11.4091 0.337491 10.7102 0.649668 10.2683 0.750796C9.2696 -0.148913 8.10741 -0.242347 6.89926 0.483137C5.91714 1.07287 5.7034 2.27211 5.74508 3.00309C3.4971 2.7805 2.09979 1.55927 1.31324 0.54854C1.2582 0.477641 1.1695 0.440268 1.08614 0.445764C0.998512 0.452359 0.91943 0.502373 0.874545 0.579868C0.502642 1.22566 0.399514 1.9396 0.57745 2.64475C0.674701 3.02947 0.844622 3.36858 1.04179 3.64339C0.947216 3.59557 0.855843 3.53566 0.769814 3.46421C0.690731 3.39716 0.580122 3.38452 0.486612 3.42904C0.393637 3.47466 0.334325 3.57139 0.334325 3.67746C0.334325 4.88825 1.07065 5.69618 1.75835 6.11828C1.6472 6.10454 1.53125 6.07925 1.41423 6.04243C1.31377 6.0111 1.20477 6.04243 1.1353 6.12377C1.06584 6.20456 1.04928 6.31998 1.09256 6.41836C1.47889 7.29719 2.21094 7.90176 3.11665 8.12105C2.32582 8.59866 1.26729 8.83279 0.297989 8.71793C0.172419 8.69979 0.0527259 8.78168 0.0131845 8.90589C-0.0263568 9.0301 0.0254744 9.16641 0.136083 9.23016C1.60659 10.0793 2.93604 10.3827 4.08488 10.3827C5.75683 10.3827 7.04727 9.74075 7.83276 9.20378C9.95036 7.75831 11.2702 5.16306 11.0864 2.84096C11.4257 2.58319 11.9333 2.10723 12.248 1.59555C12.3132 1.49222 12.3015 1.35592 12.2202 1.26468Z" fill="#0A142F"/>
</svg>
